{
  "accessors": [
    {
      "bufferView": 2,
      "componentType": 5126,
      "count": 864,
      "max": [
        14.062727928161621,
        12.99993896484375,
        16.312450408935547
      ],
      "min": [
        -13.393826484680176,
        4.826690673828125,
        -16.153038024902344
      ],
      "type": "VEC3"
    },
    {
      "bufferView": 2,
      "byteOffset": 10368,
      "componentType": 5126,
      "count": 864,
      "max": [
        0.98860645294189453,
        1,
        0.9989783763885498
      ],
      "min": [
        -0.98860645294189453,
        -0.99970018863677979,
        -0.9989783763885498
      ],
      "type": "VEC3"
    },
    {
      "bufferView": 1,
      "componentType": 5126,
      "count": 864,
      "max": [
        1.0000001192092896,
        1
      ],
      "min": [
        0,
        -1.5646219253540039e-07
      ],
      "type": "VEC2"
    },
    {
      "bufferView": 0,
      "componentType": 5125,
      "count": 3030,
      "max": [
        863
      ],
      "min": [
        0
      ],
      "type": "SCALAR"
    },
    {
      "bufferView": 2,
      "byteOffset": 20736,
      "componentType": 5126,
      "count": 4,
      "max": [
        1.2062736749649048,
        2.8636998100541738e-16,
        1.2896957397460938
      ],
      "min": [
        0,
        -2.8636998100541738e-16,
        -1.2896957397460938
      ],
      "type": "VEC3"
    },
    {
      "bufferView": 2,
      "byteOffset": 20784,
      "componentType": 5126,
      "count": 4,
      "max": [
        0,
        1,
        2.2204460492503131e-16
      ],
      "min": [
        0,
        1,
        2.2204460492503131e-16
      ],
      "type": "VEC3"
    },
    {
      "bufferView": 1,
      "byteOffset": 6912,
      "componentType": 5126,
      "count": 4,
      "max": [
        0.93531650304794312,
        1
      ],
      "min": [
        0.46765825152397156,
        0
      ],
      "type": "VEC2"
    },
    {
      "bufferView": 0,
      "byteOffset": 12120,
      "componentType": 5125,
      "count": 6,
      "max": [
        3
      ],
      "min": [
        0
      ],
      "type": "SCALAR"
    },
    {
      "bufferView": 2,
      "byteOffset": 20832,
      "componentType": 5126,
      "count": 1330,
      "max": [
        4.4906067848205566,
        15.514339447021484,
        9.2768802642822266
      ],
      "min": [
        -5.5880146026611328,
        0.1900038868188858,
        -8.9585800170898438
      ],
      "type": "VEC3"
    },
    {
      "bufferView": 2,
      "byteOffset": 36792,
      "componentType": 5126,
      "count": 1330,
      "max": [
        0.9948197603225708,
        0.9923022985458374,
        1
      ],
      "min": [
        -0.99910753965377808,
        -1,
        -0.96592587232589722
      ],
      "type": "VEC3"
    },
    {
      "bufferView": 1,
      "byteOffset": 6944,
      "componentType": 5126,
      "count": 1330,
      "max": [
        1,
        1
      ],
      "min": [
        0,
        0
      ],
      "type": "VEC2"
    },
    {
      "bufferView": 0,
      "byteOffset": 12144,
      "componentType": 5125,
      "count": 1968,
      "max": [
        1329
      ],
      "min": [
        0
      ],
      "type": "SCALAR"
    },
    {
      "bufferView": 2,
      "byteOffset": 52752,
      "componentType": 5126,
      "count": 436,
      "max": [
        -4.7175197601318359,
        11.919876098632812,
        2.2374286651611328
      ],
      "min": [
        -5.8019509315490723,
        9.1453781127929688,
        -2.1339342594146729
      ],
      "type": "VEC3"
    },
    {
      "bufferView": 2,
      "byteOffset": 57984,
      "componentType": 5126,
      "count": 436,
      "max": [
        1,
        1,
        1
      ],
      "min": [
        -1,
        -1,
        -1
      ],
      "type": "VEC3"
    },
    {
      "bufferView": 1,
      "byteOffset": 17584,
      "componentType": 5126,
      "count": 436,
      "max": [
        1.0000001192092896,
        1
      ],
      "min": [
        0,
        -1.5646219253540039e-07
      ],
      "type": "VEC2"
    },
    {
      "bufferView": 0,
      "byteOffset": 20016,
      "componentType": 5125,
      "count": 1554,
      "max": [
        435
      ],
      "min": [
        0
      ],
      "type": "SCALAR"
    },
    {
      "bufferView": 2,
      "byteOffset": 63216,
      "componentType": 5126,
      "count": 1090,
      "max": [
        0.38068634271621704,
        14.666936874389648,
        8.2946376800537109
      ],
      "min": [
        -5.5808839797973633,
        0.82936501502990723,
        -7.8918194770812988
      ],
      "type": "VEC3"
    },
    {
      "bufferView": 2,
      "byteOffset": 76296,
      "componentType": 5126,
      "count": 1090,
      "max": [
        1,
        1,
        1
      ],
      "min": [
        -1,
        -1,
        -1
      ],
      "type": "VEC3"
    },
    {
      "bufferView": 1,
      "byteOffset": 21072,
      "componentType": 5126,
      "count": 1090,
      "max": [
        1.0000001192092896,
        1
      ],
      "min": [
        0,
        -1.5646219253540039e-07
      ],
      "type": "VEC2"
    },
    {
      "bufferView": 0,
      "byteOffset": 26232,
      "componentType": 5125,
      "count": 4758,
      "max": [
        1089
      ],
      "min": [
        0
      ],
      "type": "SCALAR"
    },
    {
      "bufferView": 2,
      "byteOffset": 89376,
      "componentType": 5126,
      "count": 168,
      "max": [
        -4.6997666358947754,
        11.885686874389648,
        2.0038747787475586
      ],
      "min": [
        -4.7906546592712402,
        11.093093872070312,
        -1.9301402568817139
      ],
      "type": "VEC3"
    },
    {
      "bufferView": 2,
      "byteOffset": 91392,
      "componentType": 5126,
      "count": 168,
      "max": [
        1,
        1,
        1
      ],
      "min": [
        -1,
        -1,
        -1
      ],
      "type": "VEC3"
    },
    {
      "bufferView": 1,
      "byteOffset": 29792,
      "componentType": 5126,
      "count": 168,
      "max": [
        0.65625,
        1
      ],
      "min": [
        0.34374997019767761,
        -7.4505805969238281e-08
      ],
      "type": "VEC2"
    },
    {
      "bufferView": 0,
      "byteOffset": 45264,
      "componentType": 5125,
      "count": 480,
      "max": [
        167
      ],
      "min": [
        0
      ],
      "type": "SCALAR"
    }
  ],
  "asset": {
    "extras": {
      "author": "alphae (https://sketchfab.com/alphaemu)",
      "license": "CC-BY-4.0 (http://creativecommons.org/licenses/by/4.0/)",
      "source": "https://sketchfab.com/3d-models/low-poly-monkey-balancing-basket-39cb960e169b475284ae492c9ac46fc0",
      "title": "Low-Poly Monkey Balancing Basket"
    },
    "generator": "Sketchfab-7.68.0",
    "version": "2.0"
  },
  "bufferViews": [
    {
      "buffer": 0,
      "byteLength": 47184,
      "byteOffset": 0,
      "name": "floatBufferViews",
      "target": 34963
    },
    {
      "buffer": 0,
      "byteLength": 31136,
      "byteOffset": 47184,
      "byteStride": 8,
      "name": "floatBufferViews",
      "target": 34962
    },
    {
      "buffer": 0,
      "byteLength": 93408,
      "byteOffset": 78320,
      "byteStride": 12,
      "name": "floatBufferViews",
      "target": 34962
    }
  ],
  "buffers": [
    {
      "byteLength": 171728,
      "uri": "scene.bin"
    }
  ],
  "materials": [
    {
      "doubleSided": true,
      "name": "b_brown",
      "pbrMetallicRoughness": {
        "baseColorFactor": [
          0.028863290822882727,
          0.0084883333049091438,
          0.0084883333049091438,
          1
        ],
        "metallicFactor": 0,
        "roughnessFactor": 0.59999999999999998
      }
    },
    {
      "doubleSided": true,
      "name": "m_brown",
      "pbrMetallicRoughness": {
        "baseColorFactor": [
          0.59784488044925654,
          0.31269497231087051,
          0.19228831947561126,
          1
        ],
        "metallicFactor": 0,
        "roughnessFactor": 0.59999999999999998
      }
    },
    {
      "doubleSided": true,
      "name": "m_black",
      "pbrMetallicRoughness": {
        "baseColorFactor": [
          0.012318589687994614,
          0.0045103305452090393,
          0.035640812458961862,
          1
        ],
        "metallicFactor": 0,
        "roughnessFactor": 0.59999999999999998
      }
    },
    {
      "doubleSided": true,
      "name": "m_tan",
      "pbrMetallicRoughness": {
        "baseColorFactor": [
          0.97998638095384605,
          0.92026671313295527,
          0.62322681896050869,
          1
        ],
        "metallicFactor": 0,
        "roughnessFactor": 0.59999999999999998
      }
    },
    {
      "doubleSided": true,
      "name": "m_white",
      "pbrMetallicRoughness": {
        "baseColorFactor": [
          1,
          1,
          1,
          1
        ],
        "metallicFactor": 0,
        "roughnessFactor": 0.59999999999999998
      }
    }
  ],
  "meshes": [
    {
      "name": "pSphere2_b_brown_0",
      "primitives": [
        {
          "attributes": {
            "NORMAL": 1,
            "POSITION": 0,
            "TEXCOORD_0": 2
          },
          "indices": 3,
          "material": 0,
          "mode": 4
        }
      ]
    },
    {
      "name": "pPlane1_m_brown_0",
      "primitives": [
        {
          "attributes": {
            "NORMAL": 5,
            "POSITION": 4,
            "TEXCOORD_0": 6
          },
          "indices": 7,
          "material": 1,
          "mode": 4
        }
      ]
    },
    {
      "name": "side2_m_brown_0",
      "primitives": [
        {
          "attributes": {
            "NORMAL": 9,
            "POSITION": 8,
            "TEXCOORD_0": 10
          },
          "indices": 11,
          "material": 1,
          "mode": 4
        }
      ]
    },
    {
      "name": "side2_m_black_0",
      "primitives": [
        {
          "attributes": {
            "NORMAL": 13,
            "POSITION": 12,
            "TEXCOORD_0": 14
          },
          "indices": 15,
          "material": 2,
          "mode": 4
        }
      ]
    },
    {
      "name": "side2_m_tan_0",
      "primitives": [
        {
          "attributes": {
            "NORMAL": 17,
            "POSITION": 16,
            "TEXCOORD_0": 18
          },
          "indices": 19,
          "material": 3,
          "mode": 4
        }
      ]
    },
    {
      "name": "side2_m_white_0",
      "primitives": [
        {
          "attributes": {
            "NORMAL": 21,
            "POSITION": 20,
            "TEXCOORD_0": 22
          },
          "indices": 23,
          "material": 4,
          "mode": 4
        }
      ]
    }
  ],
  "nodes": [
    {
      "children": [
        1
      ],
      "name": "RootNode (gltf orientation matrix)",
      "rotation": [
        -0.70710678118654746,
        -0,
        -0,
        0.70710678118654757
      ]
    },
    {
      "children": [
        2
      ],
      "name": "RootNode (model correction matrix)"
    },
    {
      "children": [
        3
      ],
      "matrix": [
        1,
        0,
        0,
        0,
        0,
        0,
        1,
        0,
        0,
        -1,
        0,
        0,
        0,
        0,
        0,
        1
      ],
      "name": "5110c13ce1e64c1aa51bca85dd040b11.fbx"
    },
    {
      "children": [
        4,
        6,
        8,
        10,
        13
      ],
      "name": "RootNode"
    },
    {
      "children": [
        5
      ],
      "matrix": [
        1,
        0,
        0,
        0,
        0,
        1,
        0,
        0,
        0,
        0,
        1,
        0,
        -0.90791821479797363,
        9.1198148727416992,
        0,
        1
      ],
      "name": "pSphere2"
    },
    {
      "mesh": 0,
      "name": "pSphere2_b_brown_0"
    },
    {
      "children": [
        7
      ],
      "matrix": [
        0.25000000000000144,
        -0.25881904510252074,
        -0.93301270189221897,
        0,
        -0.96592582628906798,
        -4.4408920985006262e-16,
        -0.25881904510252229,
        0,
        0.066987298107780757,
        0.96592582628906842,
        -0.25,
        0,
        -0.70951676368713379,
        14.776232719421387,
        0.2226642519235611,
        1
      ],
      "name": "pPlane1"
    },
    {
      "mesh": 1,
      "name": "pPlane1_m_brown_0"
    },
    {
      "children": [
        9
      ],
      "matrix": [
        0.98700055544774279,
        -0.037312625693127995,
        -0.15632553057556436,
        0,
        0.036853245354087509,
        0.999303641524379,
        -0.0058369806395860823,
        0,
        0.15643446504117503,
        1.3010426069826053e-18,
        0.98768834059498822,
        0,
        -63.211593627929688,
        13.423654556274414,
        10.071148872375488,
        1
      ],
      "name": "persp1"
    },
    {
      "name": ""
    },
    {
      "children": [
        11
      ],
      "matrix": [
        18.46600980949534,
        2.8993342743869254e-15,
        18.46600980949535,
        0,
        -17.836795783498829,
        6.7590286968079614,
        17.836795783498822,
        0,
        -4.7793550257473818,
        -25.225038506303274,
        4.7793550257473836,
        0,
        -26.38566780090332,
        31.81218147277832,
        39.458415985107422,
        1
      ],
      "name": "areaLight1"
    },
    {
      "children": [
        12
      ],
      "matrix": [
        1,
        0,
        0,
        0,
        0,
        2.2204460492503131e-16,
        1,
        0,
        0,
        -1,
        2.2204460492503131e-16,
        0,
        0,
        0,
        0,
        1
      ],
      "name": ""
    },
    {
      "name": ""
    },
    {
      "children": [
        14,
        15,
        16,
        17
      ],
      "name": "side2"
    },
    {
      "mesh": 2,
      "name": "side2_m_brown_0"
    },
    {
      "mesh": 3,
      "name": "side2_m_black_0"
    },
    {
      "mesh": 4,
      "name": "side2_m_tan_0"
    },
    {
      "mesh": 5,
      "name": "side2_m_white_0"
    }
  ],
  "scene": 0,
  "scenes": [
    {
      "name": "OSG_Scene",
      "nodes": [
        0
      ]
    }
  ]
}

